<svg width="80" height="80" viewBox="0 0 80 80" fill="none" xmlns="http://www.w3.org/2000/svg">
<g clip-path="url(#clip0_1216_82054)">
<path d="M40 80C38.8838 80 37.7484 79.9519 36.6418 79.8556C36.3724 79.8364 36.1799 79.6055 36.1992 79.336C36.2184 79.0666 36.4686 78.8742 36.7188 78.8934C37.8061 78.98 38.9127 79.0281 40 79.0281H40.51C40.7698 79.0281 40.9911 79.2398 40.9911 79.4996C40.9911 79.769 40.7794 79.9807 40.5196 79.9903H39.9904L40 80ZM44.3589 79.769C44.1184 79.769 43.9067 79.5862 43.8778 79.336C43.8489 79.0762 44.0414 78.8357 44.3012 78.8068C45.5617 78.6721 46.8222 78.47 48.0539 78.2102C48.3041 78.1525 48.5735 78.3257 48.6216 78.5855C48.6793 78.8453 48.5061 79.1051 48.2463 79.1532C46.9858 79.413 45.6964 79.6247 44.3974 79.769C44.3782 79.769 44.3589 79.769 44.3397 79.769H44.3589ZM32.8699 79.3649C32.8699 79.3649 32.8121 79.3649 32.7833 79.3649C31.5131 79.134 30.2333 78.8357 28.9921 78.4796C28.7323 78.4027 28.5879 78.1429 28.6649 77.8831C28.7419 77.6233 29.0017 77.4789 29.2615 77.5559C30.4739 77.9023 31.7248 78.191 32.9565 78.4219C33.2163 78.47 33.3895 78.7202 33.3414 78.98C33.3029 79.2109 33.1008 79.3745 32.8699 79.3745V79.3649ZM51.8836 78.191C51.6815 78.191 51.4891 78.0563 51.4217 77.8542C51.3447 77.604 51.4794 77.3346 51.7392 77.248C52.942 76.8727 54.1448 76.4301 55.2995 75.9297C55.5497 75.8239 55.8287 75.9297 55.9346 76.1799C56.0404 76.4301 55.9346 76.7091 55.6844 76.815C54.4912 77.325 53.2692 77.7772 52.0279 78.1621C51.9798 78.1814 51.9317 78.1814 51.8836 78.1814V78.191ZM25.4799 77.2576C25.4222 77.2576 25.3644 77.248 25.3067 77.2191C24.1039 76.7476 22.9108 76.1992 21.7561 75.6122C21.5155 75.4871 21.4289 75.1984 21.5444 74.9675C21.6695 74.7269 21.9581 74.6403 22.1891 74.7558C23.3149 75.3331 24.4792 75.8624 25.6531 76.3242C25.9033 76.4205 26.0188 76.6995 25.9225 76.9497C25.8456 77.1421 25.6627 77.2576 25.4799 77.2576V77.2576ZM58.9464 75.1792C58.7732 75.1792 58.6096 75.0926 58.523 74.929C58.3979 74.6981 58.4845 74.3998 58.7154 74.2747C59.822 73.6685 60.9093 73.0045 61.9581 72.2925C62.1795 72.1482 62.4777 72.1963 62.6221 72.4176C62.776 72.6389 62.7183 72.9372 62.497 73.0815C61.4289 73.8128 60.3127 74.496 59.1773 75.1118C59.1003 75.1503 59.0233 75.1696 58.9464 75.1696V75.1792ZM18.6384 73.7455C18.5518 73.7455 18.4556 73.7166 18.3786 73.6685C17.2913 72.966 16.2329 72.2059 15.2129 71.4072C15.0012 71.2437 14.9723 70.9357 15.1359 70.7337C15.2995 70.522 15.6074 70.4931 15.8095 70.6567C16.8006 71.4457 17.8398 72.1866 18.8982 72.8698C19.1196 73.0142 19.1869 73.3125 19.0426 73.5338C18.9464 73.6781 18.7924 73.7551 18.6384 73.7551V73.7455ZM65.2971 70.8491C65.1624 70.8491 65.018 70.7914 64.9314 70.6759C64.7582 70.4739 64.7871 70.166 64.9892 70.0024C65.961 69.1941 66.904 68.3281 67.7893 67.4332C67.9721 67.2408 68.28 67.2408 68.4725 67.4332C68.6649 67.616 68.6649 67.924 68.4725 68.1164C67.568 69.0401 66.6057 69.9254 65.605 70.7529C65.5184 70.8299 65.4029 70.8684 65.2971 70.8684V70.8491ZM12.6149 68.9728C12.4994 68.9728 12.3743 68.9247 12.2781 68.8381C11.3447 67.9432 10.4498 66.9906 9.60308 66.0091C9.42988 65.807 9.44912 65.4991 9.65119 65.3259C9.85326 65.1527 10.1612 65.1816 10.3344 65.374C11.1523 66.3363 12.0279 67.26 12.942 68.1356C13.1345 68.3185 13.1441 68.6264 12.9516 68.8188C12.8554 68.915 12.7303 68.9632 12.6052 68.9632L12.6149 68.9728ZM70.6952 65.374C70.5894 65.374 70.4835 65.3356 70.3873 65.2682C70.1852 65.1046 70.1467 64.7967 70.3199 64.5946C71.1186 63.6132 71.8691 62.5836 72.5716 61.5347C72.7159 61.3134 73.0142 61.2557 73.2355 61.4C73.4568 61.5444 73.5146 61.8426 73.3702 62.064C72.6582 63.1417 71.8788 64.2001 71.0705 65.2008C70.9743 65.3163 70.8395 65.3837 70.6952 65.3837V65.374ZM7.61126 63.132C7.4573 63.132 7.31297 63.0647 7.21674 62.93C6.47582 61.8715 5.77339 60.7649 5.13832 59.6391C5.00361 59.4082 5.09021 59.1099 5.32115 58.9848C5.55208 58.8597 5.84075 58.9367 5.97546 59.1676C6.60091 60.2646 7.27448 61.3519 8.00577 62.3815C8.15973 62.6028 8.102 62.9011 7.89031 63.0551C7.8037 63.1128 7.70748 63.1417 7.61126 63.1417V63.132ZM74.9387 58.9656C74.8617 58.9656 74.7847 58.9463 74.7173 58.9078C74.4864 58.7828 74.3902 58.4941 74.5153 58.2535C75.1119 57.1373 75.6507 55.973 76.1318 54.8087C76.2377 54.5585 76.5167 54.4431 76.7573 54.5489C76.9978 54.6451 77.1229 54.9338 77.0171 55.1744C76.5263 56.3675 75.9682 57.5511 75.362 58.6961C75.2754 58.8597 75.1119 58.956 74.9387 58.956V58.9656ZM3.83931 56.4445C3.65648 56.4445 3.47366 56.3387 3.39668 56.1559C2.87707 54.9723 2.40558 53.7503 2.00144 52.5186C1.91484 52.2684 2.05918 51.999 2.30936 51.9124C2.55954 51.8258 2.82896 51.9701 2.91556 52.2203C3.31008 53.4231 3.77195 54.6163 4.28193 55.771C4.38778 56.0115 4.28193 56.3002 4.04138 56.406C3.97402 56.4349 3.91629 56.4445 3.84893 56.4445H3.83931ZM77.8638 51.8643C77.8638 51.8643 77.7676 51.8643 77.7291 51.8451C77.4789 51.7681 77.325 51.4986 77.4116 51.2485C77.7772 50.0361 78.0852 48.7948 78.3257 47.5631C78.3738 47.3033 78.6336 47.1301 78.8934 47.1879C79.1532 47.236 79.3264 47.4958 79.2687 47.7556C79.0185 49.0257 78.7106 50.2959 78.3353 51.5371C78.2776 51.7488 78.0852 51.8835 77.8735 51.8835L77.8638 51.8643ZM1.43373 49.1508C1.21241 49.1508 1.01034 48.9968 0.962232 48.7755C0.683185 47.515 0.461872 46.2256 0.298292 44.9362C0.269425 44.6764 0.452249 44.4359 0.721674 44.3974C0.981477 44.3589 1.22204 44.5513 1.26052 44.8208C1.41448 46.0813 1.6358 47.3418 1.90522 48.5638C1.96295 48.8236 1.79937 49.0834 1.53957 49.1412C1.50108 49.1412 1.47222 49.1508 1.43373 49.1508V49.1508ZM79.3361 44.33C79.3361 44.33 79.3072 44.33 79.2879 44.33C79.0185 44.3012 78.8261 44.0702 78.8549 43.8008C78.98 42.5499 79.0378 41.2701 79.0378 40.0096C79.0378 39.3168 79.0185 38.6336 78.9897 37.96C78.98 37.6906 79.1821 37.4693 79.4419 37.4501C79.7594 37.4308 79.9326 37.6425 79.9519 37.9023C79.9904 38.5951 80.0096 39.2975 80.0096 40.0096C80.0096 41.3086 79.9423 42.6172 79.8268 43.897C79.7979 44.1472 79.5959 44.33 79.3457 44.33H79.3361ZM0.490738 41.5203C0.230936 41.5203 0.0192446 41.3182 0.00962232 41.0488C0.00962232 40.7024 0 40.3464 0 39.9904C0 39.0474 0.028867 38.0851 0.0962232 37.1518C0.115468 36.8823 0.346404 36.6803 0.606206 36.7091C0.875631 36.7284 1.06808 36.9593 1.04883 37.2191C0.981477 38.1332 0.95261 39.0666 0.95261 39.9904C0.95261 40.3368 0.95261 40.6735 0.962232 41.0199C0.962232 41.2894 0.760164 41.5107 0.490738 41.5107H0.481116L0.490738 41.5203ZM79.0763 34.573C78.8453 34.573 78.6336 34.3998 78.6048 34.1592C78.4219 32.9083 78.1718 31.6574 77.8542 30.4354C77.7869 30.1756 77.9504 29.9158 78.2006 29.8484C78.4604 29.7811 78.7202 29.935 78.7876 30.1948C79.1051 31.4457 79.3649 32.7351 79.5477 34.0149C79.5862 34.2747 79.4034 34.5249 79.1436 34.5634C79.1147 34.5634 79.0955 34.5634 79.0666 34.5634L79.0763 34.573ZM1.03921 33.8609C1.03921 33.8609 0.981477 33.8609 0.962232 33.8609C0.70243 33.8128 0.519605 33.5723 0.567717 33.3028C0.779408 32.0327 1.06808 30.7529 1.40486 29.502C1.47222 29.2422 1.73202 29.0883 1.99182 29.1652C2.25162 29.2326 2.39596 29.502 2.3286 29.7522C2.00144 30.9742 1.7224 32.2155 1.5107 33.4664C1.47222 33.6974 1.27015 33.8706 1.03921 33.8706V33.8609ZM77.2095 27.1253C77.0075 27.1253 76.8246 27.0002 76.7573 26.8078C76.3339 25.6242 75.8432 24.4407 75.3043 23.2956C75.1888 23.0551 75.2947 22.7664 75.5352 22.6509C75.7758 22.5355 76.0645 22.6413 76.1799 22.8819C76.738 24.0558 77.2384 25.2682 77.6714 26.4806C77.758 26.7308 77.6329 27.0098 77.3827 27.0964C77.325 27.1157 77.2769 27.1253 77.2191 27.1253H77.2095ZM3.05028 26.4421C2.99254 26.4421 2.93481 26.4325 2.87707 26.4133C2.62689 26.317 2.5018 26.038 2.59803 25.7878C3.0599 24.585 3.5795 23.3822 4.15684 22.2179C4.27231 21.9774 4.56098 21.8811 4.80154 21.9966C5.0421 22.1121 5.13832 22.4007 5.02285 22.6413C4.46476 23.7767 3.94515 24.9507 3.50253 26.1246C3.42555 26.317 3.24272 26.4325 3.05028 26.4325V26.4421ZM73.9187 20.178C73.7551 20.178 73.6012 20.0914 73.5049 19.9471C72.8602 18.8693 72.1482 17.8013 71.3976 16.7909C71.2341 16.5792 71.2822 16.2809 71.4939 16.1174C71.7056 15.9634 72.0135 16.0019 72.1674 16.2136C72.9372 17.2528 73.6685 18.3401 74.3324 19.4563C74.4672 19.6872 74.3998 19.9759 74.1689 20.1203C74.0919 20.1684 74.0053 20.1876 73.9187 20.1876V20.178ZM6.4662 19.5622C6.3796 19.5622 6.293 19.5429 6.21602 19.4852C5.99471 19.3408 5.91773 19.0522 6.06206 18.8212C6.74525 17.7243 7.49579 16.6466 8.28482 15.6266C8.4484 15.4149 8.74669 15.3764 8.95838 15.54C9.17007 15.7036 9.20856 16.0019 9.04498 16.2136C8.2752 17.2143 7.5439 18.2631 6.87996 19.3312C6.79336 19.4756 6.62978 19.5525 6.47582 19.5525L6.4662 19.5622ZM69.3481 14.0101C69.2134 14.0101 69.0883 13.9523 68.9921 13.8465C68.1453 12.9131 67.2504 12.0086 66.3074 11.1522C66.115 10.9694 66.0957 10.6711 66.2786 10.4691C66.4614 10.2766 66.7597 10.2574 66.9617 10.4402C67.924 11.3158 68.8477 12.2396 69.7041 13.2018C69.8869 13.4039 69.8677 13.7022 69.6656 13.885C69.5694 13.9716 69.4539 14.0101 69.3481 14.0101V14.0101ZM11.1523 13.4712C11.0368 13.4712 10.9117 13.4327 10.8251 13.3365C10.6327 13.1537 10.623 12.8554 10.8059 12.6533C11.6911 11.7103 12.6341 10.7962 13.606 9.93983C13.808 9.76663 14.1063 9.78588 14.2892 9.98795C14.4624 10.19 14.4431 10.4883 14.241 10.6711C13.2981 11.4987 12.3743 12.3935 11.5083 13.3173C11.4121 13.4135 11.287 13.4712 11.1523 13.4712V13.4712ZM63.6613 8.82365C63.5651 8.82365 63.4592 8.79478 63.3726 8.72742C62.3623 7.96726 61.3038 7.25521 60.2261 6.60089C59.9952 6.46618 59.9278 6.16788 60.0625 5.93695C60.1973 5.70601 60.4955 5.63866 60.7265 5.77337C61.8331 6.44693 62.9204 7.17823 63.95 7.94801C64.1617 8.11159 64.2098 8.40989 64.0462 8.62158C63.95 8.74667 63.8056 8.81402 63.6613 8.81402V8.82365ZM16.916 8.39064C16.7621 8.39064 16.6178 8.32328 16.5215 8.18857C16.3676 7.97688 16.4157 7.66897 16.6274 7.51501C17.6762 6.76447 18.7732 6.05242 19.8893 5.3981C20.1203 5.26339 20.4089 5.34036 20.5437 5.5713C20.6784 5.80224 20.6014 6.09091 20.3705 6.22562C19.2735 6.86069 18.2054 7.56312 17.1855 8.29442C17.0989 8.35215 17.0026 8.38102 16.9064 8.38102L16.916 8.39064ZM57.0892 4.83038C57.0219 4.83038 56.9449 4.81114 56.8776 4.78227C55.7421 4.2338 54.5586 3.74306 53.375 3.31005C53.1248 3.22345 52.9998 2.94441 53.0864 2.69423C53.173 2.44404 53.452 2.31895 53.7022 2.40556C54.9146 2.84818 56.127 3.35817 57.2913 3.91626C57.5319 4.03173 57.6281 4.3204 57.5126 4.56096C57.426 4.73416 57.2528 4.83038 57.0796 4.83038H57.0892ZM23.5554 4.52247C23.3726 4.52247 23.1994 4.41662 23.1128 4.24342C23.007 4.00286 23.1128 3.71419 23.3534 3.60835C24.5369 3.0695 25.7493 2.57876 26.9714 2.165C27.2216 2.0784 27.491 2.21311 27.5776 2.46329C27.6642 2.71347 27.5295 2.99252 27.2793 3.07912C26.0861 3.49288 24.9026 3.96437 23.7479 4.4936C23.6805 4.52247 23.6132 4.54171 23.5458 4.54171L23.5554 4.52247ZM49.8725 2.19386C49.8725 2.19386 49.7955 2.19386 49.757 2.17462C48.535 1.85708 47.2841 1.6069 46.0332 1.40483C45.7734 1.36634 45.5906 1.11616 45.6291 0.856361C45.6675 0.596559 45.9177 0.413735 46.1775 0.452224C47.4573 0.654293 48.7371 0.914095 49.988 1.23163C50.2478 1.29899 50.4017 1.55879 50.3344 1.81859C50.2766 2.03991 50.0842 2.18424 49.8725 2.18424V2.19386ZM30.8203 2.02066C30.599 2.02066 30.4065 1.87633 30.3488 1.65501C30.2911 1.39521 30.445 1.13541 30.7048 1.07767C31.9557 0.779383 33.2451 0.538825 34.5345 0.365623C34.7847 0.327134 35.0349 0.509958 35.0734 0.779383C35.1119 1.03919 34.929 1.28937 34.6596 1.31823C33.4087 1.49143 32.1482 1.72237 30.9261 2.01104C30.8877 2.01104 30.8492 2.02066 30.8107 2.02066H30.8203ZM42.2805 1.01994C42.2805 1.01994 42.2612 1.01994 42.2516 1.01994C41.4915 0.981452 40.7024 0.942962 39.9615 0.952585C39.4611 0.952585 38.9512 0.962207 38.4508 0.981452C38.1525 1.0007 37.9601 0.779383 37.9504 0.51958C37.9408 0.250155 38.1429 0.0288417 38.4123 0.0192193C38.9319 -2.53019e-05 39.4515 -0.0192699 39.9904 -0.00964762C40.7602 -0.00964762 41.5396 0.00959702 42.2997 0.0577086C42.5692 0.0769533 42.7712 0.298267 42.752 0.567692C42.7424 0.827494 42.521 1.01994 42.2709 1.01994H42.2805Z" fill="#D3D3D3"/>
<path d="M40.0002 71.2534C56.1981 71.2534 69.3291 58.1224 69.3291 41.9245C69.3291 25.7267 56.1981 12.5957 40.0002 12.5957C23.8024 12.5957 10.6714 25.7267 10.6714 41.9245C10.6714 58.1224 23.8024 71.2534 40.0002 71.2534Z" fill="#E2E2E2"/>
<path d="M69.3291 40.0095C69.3291 56.2039 56.1946 69.3287 40.0002 69.3287C23.8059 69.3287 10.6714 56.2039 10.6714 40.0095C10.6714 39.1916 10.7003 38.393 10.7772 37.5943C11.9993 22.5161 24.6141 10.6807 40.0002 10.6807C55.3863 10.6807 68.0012 22.5161 69.2232 37.5943C69.3002 38.393 69.3291 39.1916 69.3291 40.0095Z" fill="#EEEEEE"/>
<path d="M69.2229 37.5943C68.0008 52.6629 55.3859 64.5176 39.9999 64.5176C24.6138 64.5176 11.9989 52.6629 10.7769 37.5943C11.9989 22.5161 24.6138 10.6807 39.9999 10.6807C55.3859 10.6807 68.0008 22.5161 69.2229 37.5943V37.5943Z" fill="#F5F5F5"/>
<path d="M31.2051 52.3936C30.6374 52.3936 30.1659 52.1915 29.7714 51.797C29.3769 51.4025 29.1748 50.9214 29.1748 50.3633V35.6796C29.1748 35.1119 29.3769 34.6404 29.7714 34.2459C30.1659 33.8514 30.647 33.6493 31.2051 33.6493H33.5722V30.397C33.5722 28.6168 34.1977 27.0965 35.4486 25.8456C36.6995 24.5947 38.2198 23.9692 39.9999 23.9692C41.78 23.9692 43.3004 24.5947 44.5513 25.8456C45.8022 27.0965 46.4276 28.6168 46.4276 30.397V33.6397H48.7947C49.3624 33.6397 49.8339 33.8417 50.2284 34.2363C50.623 34.6308 50.825 35.1119 50.825 35.67V50.3537C50.825 50.9214 50.623 51.3929 50.2284 51.7874C49.8339 52.1819 49.3528 52.384 48.7947 52.384H31.2051V52.3936ZM31.2051 50.3633H48.7947V35.6796H31.2051V50.3633ZM39.9999 45.6291C40.7216 45.6291 41.3374 45.3789 41.8474 44.8882C42.3574 44.3878 42.6076 43.7912 42.6076 43.0984C42.6076 42.4056 42.3574 41.809 41.8474 41.2509C41.3374 40.6928 40.7216 40.4234 39.9999 40.4234C39.2782 40.4234 38.6624 40.7025 38.1524 41.2509C37.6425 41.7994 37.3923 42.4152 37.3923 43.0984C37.3923 43.7816 37.6425 44.3974 38.1524 44.8882C38.6624 45.3885 39.2782 45.6291 39.9999 45.6291ZM35.6025 33.6493H44.3973V30.397C44.3973 29.1749 43.9643 28.1453 43.1079 27.2889C42.2515 26.4326 41.2123 25.9995 39.9999 25.9995C38.7875 25.9995 37.7483 26.4326 36.8919 27.2889C36.0355 28.1453 35.6025 29.1845 35.6025 30.397V33.6397V33.6493Z" fill="#D6D6D6"/>
</g>
<defs>
<clipPath id="clip0_1216_82054">
<rect width="80" height="80" fill="white"/>
</clipPath>
</defs>
</svg>
