<svg width="80" height="80" viewBox="0 0 80 80" fill="none" xmlns="http://www.w3.org/2000/svg">
<g clip-path="url(#clip0_1_17309)">
<path d="M40 80C62.0914 80 80 62.0914 80 40C80 17.9086 62.0914 0 40 0C17.9086 0 0 17.9086 0 40C0 62.0914 17.9086 80 40 80Z" fill="url(#paint0_linear_1_17309)"/>
<path d="M40 71.6338C56.3951 71.6338 69.6859 58.343 69.6859 41.9479C69.6859 25.5528 56.3951 12.262 40 12.262C23.6049 12.262 10.3141 25.5528 10.3141 41.9479C10.3141 58.343 23.6049 71.6338 40 71.6338Z" fill="#B78740"/>
<path d="M4.98662 41.4609C4.17824 41.4609 3.5257 40.8084 3.5257 40C3.5257 36.299 4.08085 32.6467 5.16193 29.1502C5.40541 28.3808 6.22353 27.9523 6.99295 28.186C7.76236 28.4295 8.1909 29.2476 7.95715 30.017C6.95399 33.2311 6.44754 36.5912 6.44754 40C6.44754 40.8084 5.79499 41.4609 4.98662 41.4609Z" fill="#EAD9AD"/>
<path d="M10.9666 21.8846C10.6842 21.8846 10.4017 21.8067 10.1485 21.6314C9.4765 21.1833 9.30119 20.2678 9.75894 19.6055C14.6287 12.3886 21.9138 7.14877 30.2605 4.84051C31.0299 4.62624 31.8383 5.084 32.0526 5.86316C32.2669 6.64232 31.8091 7.44095 31.0299 7.66496C23.3455 9.78816 16.6545 14.6092 12.1646 21.2515C11.8821 21.6703 11.4244 21.8943 10.9569 21.8943L10.9666 21.8846Z" fill="#EAD9AD"/>
<path d="M69.6859 40.0097C69.6859 56.4013 56.3915 69.6859 40 69.6859C23.6085 69.6859 10.3141 56.4013 10.3141 40.0097C10.3141 39.1819 10.3433 38.3735 10.4212 37.5651C11.6581 22.3034 24.4266 10.3238 40 10.3238C55.5734 10.3238 68.3418 22.3034 69.5788 37.5651C69.6567 38.3735 69.6859 39.1819 69.6859 40.0097Z" fill="#DEB173"/>
<path d="M69.5788 37.5651C68.3419 52.8171 55.5734 64.8162 40 64.8162C24.4266 64.8162 11.6581 52.8171 10.4212 37.5651C11.6581 22.3034 24.4266 10.3238 40 10.3238C55.5734 10.3238 68.3419 22.3034 69.5788 37.5651Z" fill="#EACCA8"/>
<path d="M55.9338 26.9686H48.7266V39.0553H50.5965C54.6969 39.0553 58.0278 35.7244 58.0278 31.6241V29.0626C58.0278 27.9036 57.0928 26.9686 55.9338 26.9686ZM56.226 31.7994C56.226 34.3219 54.1807 36.3574 51.6679 36.3574H50.5186V28.9457H54.9403C55.6513 28.9457 56.226 29.5203 56.226 30.2313V31.7994Z" fill="#DEB173"/>
<path d="M22.1865 29.0626V31.6241C22.1865 35.7244 25.5174 39.0553 29.6177 39.0553H31.4877V26.9686H24.2805C23.1215 26.9686 22.1865 27.9036 22.1865 29.0626ZM23.9786 30.2313C23.9786 29.5203 24.5532 28.9457 25.2642 28.9457H29.6859V36.3574H28.5366C26.0239 36.3574 23.9786 34.3122 23.9786 31.7994V30.2313Z" fill="#DEB173"/>
<path d="M48.5025 50.0511H44.5386C44.6944 49.6908 44.7821 49.2914 44.7821 48.8727V48.1519C44.7821 46.8955 43.7594 45.8729 42.503 45.8729H37.5067C36.2503 45.8729 35.2277 46.8955 35.2277 48.1519V48.8727C35.2277 49.2914 35.3153 49.6908 35.4711 50.0511H31.5072C30.9715 50.0511 30.543 50.4797 30.543 51.0153V55.0864C30.543 55.6221 30.9715 56.0506 31.5072 56.0506H48.5123C49.048 56.0506 49.4765 55.6221 49.4765 55.0864V51.0153C49.4765 50.4797 49.048 50.0511 48.5123 50.0511H48.5025Z" fill="url(#paint1_linear_1_17309)"/>
<path d="M49.6031 23.9494H30.3969C28.936 23.9494 27.7575 25.1278 27.7575 26.5888V36.1919C27.7575 42.9511 33.2408 48.4344 40 48.4344C46.7592 48.4344 52.2425 42.9511 52.2425 36.1919V26.5888C52.2425 25.1278 51.064 23.9494 49.6031 23.9494ZM45.2009 34.0589L43.2725 36.0068C43.1361 36.1432 43.0777 36.338 43.1166 36.523L43.6231 39.2111C43.7107 39.6786 43.2238 40.0487 42.7952 39.8344L40.3506 38.5975C40.185 38.5099 39.9805 38.5196 39.8149 38.5975L37.4093 39.9123C36.9905 40.1461 36.4938 39.7955 36.562 39.3182L36.9808 36.6107C37.01 36.4256 36.9418 36.2308 36.8054 36.1042L34.8089 34.2245C34.4582 33.8934 34.6433 33.309 35.1108 33.2311L37.8184 32.7928C38.0034 32.7636 38.169 32.637 38.2469 32.4714L39.4156 29.9976C39.6202 29.569 40.2337 29.5496 40.448 29.9781L41.7044 32.413C41.7921 32.5785 41.9576 32.6954 42.1427 32.7246L44.86 33.0752C45.3372 33.1337 45.532 33.718 45.2009 34.0492V34.0589Z" fill="url(#paint2_linear_1_17309)"/>
</g>
<defs>
<linearGradient id="paint0_linear_1_17309" x1="40" y1="4.36328" x2="40" y2="77.5067" gradientUnits="userSpaceOnUse">
<stop stop-color="#DABB63"/>
<stop offset="1" stop-color="#C29046"/>
</linearGradient>
<linearGradient id="paint1_linear_1_17309" x1="40" y1="56.0506" x2="40" y2="45.8729" gradientUnits="userSpaceOnUse">
<stop stop-color="#DABB63"/>
<stop offset="1" stop-color="#C29046"/>
</linearGradient>
<linearGradient id="paint2_linear_1_17309" x1="-9.89519e-06" y1="48.4344" x2="40" y2="23.9494" gradientUnits="userSpaceOnUse">
<stop stop-color="#DABB63"/>
<stop offset="1" stop-color="#C29046"/>
</linearGradient>
<clipPath id="clip0_1_17309">
<rect width="80" height="80" fill="white"/>
</clipPath>
</defs>
</svg>
